<?xml version="1.0" encoding="UTF-8"?>
<svg width="27px" height="34px" viewBox="0 0 27 34" version="1.1" xmlns="http://www.w3.org/2000/svg" xmlns:xlink="http://www.w3.org/1999/xlink">
    <!-- Generator: Sketch 48.2 (47327) - http://www.bohemiancoding.com/sketch -->
    <title>Combined Shape</title>
    <desc>Created with Sketch.</desc>
    <defs></defs>
    <g id="Cookievoorkeuren-toggle-desktop" stroke="none" stroke-width="1" fill="none" fill-rule="evenodd" transform="translate(-565.000000, -927.000000)">
        <g id="Group-13" transform="translate(563.000000, 671.000000)" fill="#49A5DD" fill-rule="nonzero">
            <g id="Group-6" transform="translate(1.000000, 247.000000)">
                <path d="M12.1297845,9 L16.8704051,9 L16.8704051,13.8571429 L12.1297845,13.8571429 L12.1297845,9 Z M25.6806238,14.2343164 L28.05046,18.3401678 L23.8436886,20.7682535 L21.4738523,16.6624021 L25.6806238,14.2343164 Z M3.39896096,14.2114118 L7.50481242,16.581248 L5.0767267,20.7880194 L0.970875248,18.4181832 L3.39896096,14.2114118 Z M22.7961808,24.7857143 C22.7961808,27.666 21.3834758,30.2038571 19.2407154,31.7411429 L19.2407154,35.7142857 L9.75947427,35.7142857 L9.75947427,31.7411429 C7.61671378,30.2038571 6.20400886,27.666 6.20400886,24.7857143 C6.20400886,20.0985714 9.92539599,16.2857143 14.5000948,16.2857143 C19.0747936,16.2857143 22.7961808,20.0985714 22.7961808,24.7857143 Z M12.1297845,38.1428571 L16.8704051,38.1428571 L16.8704051,43 L12.1297845,43 L12.1297845,38.1428571 Z" id="Combined-Shape"></path>
            </g>
        </g>
    </g>
</svg>